<?xml version="1.0" encoding="utf-8"?>
<svg version="1.1" id="Layer_1" x="0px" y="0px" viewBox="0 0 98.6 180" enable-background="new 0 0 419 180" xmlns="http://www.w3.org/2000/svg">
  <g>
    <defs>
      <rect id="SVGID_1_" width="419" height="180"/>
    </defs>
    <clipPath id="SVGID_2_">
      <rect width="419" height="180" transform="matrix(1, 0, 0, 1, 0, 0)" overflow="visible"/>
    </clipPath>
    <path clip-path="url(#SVGID_2_)" fill="#A81D35" d="M30.9,0.6c0,0,6.5,7.2,6.5,23.9c0,23.7-26.3,42.5-26.3,66.7 c0,29.2,17,38.4,17,50.8c0,5.8-1.7,8.1-1.7,8.1S0,127.9,0,97.9c0-27.2,17.1-42,24.8-53.4c5.7-8.3,6-10.1,5.4-11.2 c0,0-2.2-3.6-2.2-9c0-5.3,3.6-13,3.6-17.5C31.7,2.8,30.9,0.6,30.9,0.6"/>
    <path clip-path="url(#SVGID_2_)" fill="#A81D35" d="M88.9,52c-1.5-2.3-13.9-5.6-18-5.9l-1.3,6.2c0,0,4.2,0.7,9.8,3.6 c7,3.7,8.3,6.7,8.3,6.7S90.4,54.7,88.9,52"/>
    <path clip-path="url(#SVGID_2_)" fill="#A81D35" d="M84.9,149.3c0,0,2.1-6.6,1.7-12.6c-0.7-12.3-6.4-17.5-20.3-31.8 c-7.5-7.7-4.6-17-4.6-17s-10.7-4-8.6-12.4c1.2-5,6.8-5.5,11.7-6.1c12.9-1.4,13.4-6.8,14.5-9.5c0,0,6.8,3.8,5.1,9.3 c-1.7,5.5-7.3,5.5-9.9,5.3c-3.3-0.3-13.4-2.3-14.8,2.1c-1.3,4.1,3.4,8.1,11.5,10.3C83.1,90,87.7,86,87.7,86s-0.2,4.5-2.1,6.2 c-2.1,1.9-6.8,1.4-6.8,1.4s-3.1,4,4.1,8.9c5,3.4,15.6,7.1,15.6,20.7C98.7,138.6,84.9,149.3,84.9,149.3"/>
  </g>
  <g>
    <defs>
      <rect id="SVGID_3_" y="0.6" width="418.2" height="179.3"/>
    </defs>
    <clipPath id="SVGID_4_">
      <rect y="0.6" width="418.2" height="179.3" transform="matrix(1, 0, 0, 1, 0, 0)" overflow="visible"/>
    </clipPath>
    <g clip-path="url(#SVGID_4_)">
      <defs>
        <rect id="SVGID_5_" width="419" height="180"/>
      </defs>
      <clipPath id="SVGID_6_">
        <rect width="419" height="180" transform="matrix(1, 0, 0, 1, 0, 0)" overflow="visible"/>
      </clipPath>
      <path clip-path="url(#SVGID_6_)" fill="#A81D35" d="M63.5,81.2c0,0,2.8-3.6,8.4-3.2c6.4,0.5,10.5,0.5,15-0.6 c8.5-2.2,11.7-6.7,11.7-6.7s-3.1,7.2-10.2,10.6C85,83,79.9,83.6,74.3,82C65.5,79.5,63.5,81.2,63.5,81.2"/>
      <path clip-path="url(#SVGID_6_)" fill="#A81D35" d="M67.1,55.1c3.4,0.5,7.6,2.1,9.2,3c0,0-0.2,3.6-3.4,5.6 c-3.2,2-7.6,2.2-11.9,2.9c-5.1,0.7-10.1,3.1-11.1,7.7c-2.4,10.4,8.3,15.6,8.3,15.6s-2.4,8.9,6.4,17.9 C77.6,121,83.2,126.5,83.2,138c0,22.1-23.4,42-23.4,42s12.1-14.8,12.1-32.5c0-15.8-8.8-19.7-15.4-25.4c-5.6-4.8-10.1-11-10.7-24.1 c-1.1,6.7-4.7,9.6-4.7,17c0,5.5,1.9,9.3,1.9,9.3s-12.8-7.9-12.8-22.6c0-9.9,6.7-19.2,6.7-26.1c-2.1,7.2-12,14.5-12,28.2 c0,11.9,5.4,19.4,5.4,19.4s-14.9-11.1-14.9-31.7c0-18.7,17-35.5,17-35.5s-1.1-11.5,5.7-11.5c4.1,0,5.2,3.4,5.2,3.4 s11-4.1,24.4-2.2l-1.1,5.9l-2.6-0.3c0,0,0.2,1.1,0.2,1.8c0,2.3-1.9,4.2-4.2,4.2c-2.3,0-4.2-1.9-4.2-4.2c0-0.9,0.3-1.7,0.8-2.4 c-4.9-0.2-14.7,1.3-14.7,1.8c0,0.3,6.8,0.1,10.6,0.7c0,4.2,3.3,7.5,7.5,7.5C63.4,60.7,66.3,58.4,67.1,55.1"/>
    </g>
  </g>
</svg>