<?xml version="1.0" encoding="utf-8"?>
<!-- Generator: Adobe Illustrator 23.0.4, SVG Export Plug-In . SVG Version: 6.00 Build 0)  -->
<svg version="1.1" id="Layer_1" xmlns="http://www.w3.org/2000/svg" xmlns:xlink="http://www.w3.org/1999/xlink" x="0px" y="0px"
	 viewBox="0 0 250 250" style="enable-background:new 0 0 250 250;" xml:space="preserve">
<path d="M 195.432 0.02 C 184.114 0.02 178.294 10.976 178.294 21.914 C 178.294 32.122 182.679 38.329 182.679 51.831 C 182.679 83.589 158.225 121.534 142.905 148.905 C 135.61 113.872 136.337 0 84.902 0 C 55.355 0 45.492 31.011 45.492 55.105 C 45.492 61.799 47.716 67.821 53.435 67.074 C 58.669 66.386 58.73 61.352 57.255 56.764 C 55.436 52.013 54.688 47.769 54.971 43.462 C 55.638 33.638 62.267 27.007 72.493 27.007 C 96.2 27.007 110.448 91.231 115.177 133.217 L 118.451 163.5 L 119.542 182.482 L 99.838 205.467 C 87.792 219.333 76.859 222.993 68.815 222.993 C 62.974 222.993 58.225 220.447 53.496 220.447 C 44.745 220.447 40.359 227.379 40.359 235.404 C 40.359 243.43 47.655 250 55.315 250 C 84.498 250 109.316 212.765 124.999 192.71 C 150.545 159.861 209.64 59.513 209.64 19.365 C 209.66 9.865 206.022 0.02 195.432 0.02 Z"/>
</svg>
