<svg width="200" height="200" viewBox="0 0 200 200" fill="none" xmlns="http://www.w3.org/2000/svg">
<path d="M94.2926 105.478C112.702 105.478 127.626 90.5543 127.626 72.1449C127.626 53.7354 112.702 38.8115 94.2926 38.8115C75.8831 38.8115 60.9592 53.7354 60.9592 72.1449C60.9592 90.5543 75.8831 105.478 94.2926 105.478Z" fill="#0D6B93"/>
<path d="M95.6106 115.385C72.8606 114.552 26.0272 125.885 26.0272 148.635V165.302H105.527C84.944 142.302 95.2773 116.218 95.6106 115.385Z" fill="#0D6B93"/>
<path d="M161.917 150.166C164.917 145.249 166.667 139.499 166.667 133.333C166.667 114.916 151.75 99.9993 133.333 99.9993C114.917 99.9993 99.9999 114.916 99.9999 133.333C99.9999 151.749 114.917 166.666 133.333 166.666C139.5 166.666 145.25 164.833 150.167 161.916L171.583 183.333L183.333 171.583L161.917 150.166ZM133.333 149.999C124.167 149.999 116.667 142.499 116.667 133.333C116.667 124.166 124.167 116.666 133.333 116.666C142.5 116.666 150 124.166 150 133.333C150 142.499 142.5 149.999 133.333 149.999Z" fill="#0D6B93"/>
<path d="M93.6374 50.1435C96.8803 50.1475 104.088 50.2894 106.713 50.5574C108.879 50.7784 110.559 51.0248 111.898 51.2211C115.073 51.6867 116.331 51.871 117.596 50.7708C120.05 48.6362 122.107 43.7266 122.107 43.7266C122.107 43.7266 126.743 35.4016 125.85 34.5478C125.2 30.4961 105.901 18.8108 94.3372 19.1934C82.7937 18.6892 63.3079 30.4697 62.654 34.5412C61.7616 35.3951 66.3974 43.7201 66.3974 43.7201C66.3974 43.7201 68.4546 48.6297 70.9086 50.7643C72.1735 51.8645 73.4311 51.6801 76.6065 51.2146C77.9455 51.0183 79.6257 50.7719 81.7911 50.5508C84.1216 50.3129 90.0639 50.1744 93.6374 50.1435Z" fill="#0D6B93"/>
<path d="M97.166 24.6567H90.9977V32.216H83.2874V38.2635H90.9977V45.8229H97.166V38.2635H104.876V32.216H97.166V24.6567Z" fill="white"/>
</svg>
