<?xml version="1.0" encoding="UTF-8"?>
<svg width="94px" height="94px" viewBox="0 0 94 94" version="1.1" xmlns="http://www.w3.org/2000/svg" xmlns:xlink="http://www.w3.org/1999/xlink">
    <!-- Generator: Sketch 55.2 (78181) - https://sketchapp.com -->
    <title>Group 19</title>
    <desc>Created with Sketch.</desc>
    <defs>
        <polygon id="path-1" points="0 94.24 94.6113261 94.24 94.6113261 0.385564522 0 0.385564522"></polygon>
    </defs>
    <g id="Library-(Symbols)" stroke="none" stroke-width="1" fill="none" fill-rule="evenodd">
        <g id="UWE-logo-avatar" transform="translate(0.000000, 1.000000)">
            <g id="Group-19" transform="translate(0.000000, -2.000000)">
                <g id="Group-18">
                    <polygon id="Fill-1" fill="#E30F18" points="0 95 94 95 94 1 0 1"></polygon>
                    <g id="Group-17">
                        <path d="M9.52424565,56.1363096 L9.52424565,45.4798143 L14.7058761,45.4798143 L14.7058761,55.910953 C14.7058761,58.4435506 15.3378326,59.6719485 17.5372891,59.6719485 C19.6863543,59.6719485 20.3678761,58.5181231 20.3678761,55.835561 L20.3678761,45.4798143 L25.6003109,45.4798143 L25.6003109,56.0613273 C25.6003109,61.2768967 22.5165283,63.7091082 17.5372891,63.7091082 C12.4312457,63.7091082 9.52424565,61.1515165 9.52424565,56.1363096" id="Fill-2" fill="#FEFEFE"></path>
                        <polygon id="Fill-4" fill="#FEFEFE" points="26.3843913 45.4794865 31.6168261 45.4794865 33.9422609 56.6629063 36.3684783 45.4794865 40.9689565 45.4794865 43.5979783 56.7628826 46.0498043 45.4794865 50.8522609 45.4794865 46.6313696 63.4080319 41.2221522 63.4080319 38.4411304 52.0238399 35.6353261 63.4080319 30.5805 63.4080319"></polygon>
                        <path d="M17.104213,81.0223483 C18.7473,81.0223483 19.5052348,80.2700673 19.5052348,78.9412833 L19.5052348,78.8404874 C19.5052348,77.4871191 18.7729087,76.7848262 16.9526261,76.7848262 L14.9559739,76.7848262 L14.9559739,81.0223483 L17.104213,81.0223483 Z M16.9274304,73.6503219 C18.5453217,73.6503219 19.1516696,73.098813 19.1516696,71.8200172 L19.1516696,71.7196311 C19.1516696,70.4912332 18.4945174,69.9393146 16.9274304,69.9393146 L14.9559739,69.9393146 L14.9559739,73.6503219 L16.9274304,73.6503219 Z M9.90032174,66.5290558 L17.9637565,66.5290558 C22.2354522,66.5290558 24.0553217,68.4351622 24.0553217,71.2181104 L24.0553217,71.3184965 C24.0553217,73.3245793 23.0194087,74.6533633 20.9971478,75.1798781 C23.221387,75.5560186 24.6116913,76.8852123 24.6116913,79.367412 L24.6116913,79.4677981 C24.6116913,82.6772847 22.5138435,84.4580109 18.0397565,84.4580109 L9.90032174,84.4580109 L9.90032174,66.5290558 Z" id="Fill-6" fill="#FEFEFE"></path>
                        <path d="M25.99675,71.3434906 L30.5212283,71.3434906 L30.5212283,73.9514801 C31.3555761,71.9953855 32.7458804,71.1427184 34.793337,71.1681222 L34.793337,75.3552464 C32.0379239,75.2802641 30.5212283,76.1329313 30.5212283,78.2389904 L30.5212283,84.4576012 L25.99675,84.4576012 L25.99675,71.3434906 Z" id="Fill-8" fill="#FEFEFE"></path>
                        <mask id="mask-2" fill="white">
                            <use xlink:href="#path-1"></use>
                        </mask>
                        <g id="Clip-11"></g>
                        <path d="M36.1797174,84.4574783 L40.7041957,84.4574783 L40.7041957,71.3433677 L36.1797174,71.3433677 L36.1797174,84.4574783 Z M35.9521304,67.7827346 C35.9521304,66.4543603 37.0140652,65.4509092 38.4295652,65.4509092 C39.8446522,65.4509092 40.9317826,66.4543603 40.9317826,67.7827346 C40.9317826,69.1115186 39.8446522,70.0899757 38.4295652,70.0899757 C37.0140652,70.0899757 35.9521304,69.1115186 35.9521304,67.7827346 L35.9521304,67.7827346 Z" id="Fill-10" fill="#FEFEFE" mask="url(#mask-2)"></path>
                        <path d="M42.1135,80.2951023 L46.2848261,80.2951023 C46.435587,81.2481555 46.8655652,81.7746703 48.1546739,81.7746703 C49.267,81.7746703 49.7725652,81.3481319 49.7725652,80.6966467 C49.7725652,80.0697458 49.1410217,79.7689973 47.3203261,79.5178272 C43.7817826,79.0667044 42.2906957,78.0386689 42.2906957,75.3057089 C42.2906957,72.3965611 44.8941087,70.9923851 47.9522826,70.9923851 C51.2132609,70.9923851 53.4878913,72.0958126 53.7914783,75.2299072 L49.6965652,75.2299072 C49.5197826,74.352246 49.0398261,73.9261173 48.003087,73.9261173 C47.0171522,73.9261173 46.512,74.352246 46.512,74.9545625 C46.512,75.5814634 47.1183478,75.8322237 48.7362391,76.0325862 C52.4011739,76.4837089 54.1706522,77.4371719 54.1706522,80.2451142 C54.1706522,83.3542147 51.8456304,84.7583907 48.1802826,84.7583907 C44.4137391,84.7583907 42.2146957,83.2038404 42.1135,80.2951023" id="Fill-12" fill="#FEFEFE" mask="url(#mask-2)"></path>
                        <path d="M56.3102587,80.2449093 L56.3102587,74.402439 L54.7183891,74.402439 L54.7183891,71.3433267 L56.3102587,71.3433267 L56.3102587,68.6103667 L60.83515,68.6103667 L60.83515,71.3433267 L63.438563,71.3433267 L63.438563,74.402439 L60.83515,74.402439 L60.83515,79.8191903 C60.83515,80.7714241 61.3151065,81.1979625 62.17465,81.1979625 C62.6798022,81.1979625 63.0598022,81.1225705 63.4637587,80.9721962 L63.4637587,84.3828648 C62.8826065,84.5328293 62.02265,84.7590053 60.9619543,84.7590053 C57.9785413,84.7590053 56.3102587,83.3294255 56.3102587,80.2449093" id="Fill-13" fill="#FEFEFE" mask="url(#mask-2)"></path>
                        <path d="M74.0751761,77.9881481 L74.0751761,77.7877857 C74.0751761,75.5809307 73.1900239,74.3525328 71.47135,74.3525328 C69.7778717,74.3525328 68.8427413,75.5305328 68.8427413,77.7377975 L68.8427413,77.9381599 C68.8427413,80.1945933 69.7270674,81.423401 71.47135,81.423401 C73.1648283,81.423401 74.0751761,80.170009 74.0751761,77.9881481 M64.2170674,78.0635401 L64.2170674,77.8627679 C64.2170674,73.6502399 67.37685,70.9922622 71.47135,70.9922622 C75.5410674,70.9922622 78.6752413,73.5752577 78.6752413,77.7377975 L78.6752413,77.9381599 C78.6752413,82.2010858 75.5158717,84.7582678 71.4461543,84.7582678 C67.37685,84.7582678 64.2170674,82.3014719 64.2170674,78.0635401" id="Fill-14" fill="#FEFEFE" mask="url(#mask-2)"></path>
                        <polygon id="Fill-15" fill="#FEFEFE" mask="url(#mask-2)" points="80.2113913 84.457888 84.7106739 84.457888 84.7106739 66.525655 80.2113913 66.525655"></polygon>
                        <polygon id="Fill-16" fill="#FEFEFE" mask="url(#mask-2)" points="56.7810043 59.4464281 56.7810043 56.1861338 61.4376565 56.1861338 62.6202 56.1861338 62.6202 52.5255245 61.4376565 52.5255245 56.7810043 52.5255245 56.7810043 49.441418 64.111287 49.441418 64.111287 45.4796504 51.6249826 45.4796504 51.6249826 63.407786 64.5160696 63.407786 64.5160696 59.4464281"></polygon>
                    </g>
                </g>
            </g>
        </g>
    </g>
</svg>