<svg xmlns="http://www.w3.org/2000/svg" viewBox="0 0 192.7 71.3">
    <g id="VMWARE-logo">
       <path id="VMware-Logo-2" class="cls-1" d="M81.8,46.8,74.1,25.3a3.6,3.6,0,0,1-.2-1,1.8,1.8,0,0,1,1.8-1.8h.1a1.9,1.9,0,0,1,1.9,1.6l6.4,18.5L90.5,24a1.9,1.9,0,0,1,1.9-1.5h.2a2,2,0,0,1,2,1.5l6.3,18.6L107.4,24a1.9,1.9,0,0,1,1.9-1.5,1.8,1.8,0,0,1,1.8,1.8h0a3.6,3.6,0,0,1-.2,1l-7.8,21.5a2,2,0,0,1-2,1.7h-.2a2.1,2.1,0,0,1-2.1-1.7L92.5,28.6,86.1,46.8A2,2,0,0,1,84,48.5h-.1A2.1,2.1,0,0,1,81.8,46.8Zm56.3-22.4a1.9,1.9,0,0,1,1.8-2h.1a2,2,0,0,1,1.9,2v4.3a10.4,10.4,0,0,1,8.7-6.2,1.8,1.8,0,0,1,1.9,1.7v.2a1.9,1.9,0,0,1-1.7,1.9c-4.9.6-8.9,4.3-8.9,11.7v8.6a2,2,0,0,1-1.9,1.9,1.8,1.8,0,0,1-1.9-1.7V24.4Zm26.6,24.4c-6.9,0-12.5-5.4-12.5-13.2h0c0-7.2,5.1-13.1,12-13.1s11.6,6.1,11.6,12.8A1.8,1.8,0,0,1,174,37H156c.5,5.4,4.3,8.5,8.8,8.5a10.1,10.1,0,0,0,7.2-2.9,1.2,1.2,0,0,1,1-.5,1.7,1.7,0,0,1,1.7,1.6,1.4,1.4,0,0,1-.6,1.2,12.9,12.9,0,0,1-9.4,3.9Zm7.4-14.6c-.4-4.6-3-8.6-8-8.6s-7.6,3.6-8.1,8.6Zm-60.9,6.7h0c0-5.4,4.4-8.2,10.9-8.2a29.3,29.3,0,0,1,7.8,1v-.8c0-4.6-2.8-7-7.6-7a13.3,13.3,0,0,0-5.9,1.2h-.7a1.7,1.7,0,0,1-1.7-1.6,1.6,1.6,0,0,1,1.1-1.6,18,18,0,0,1,7.6-1.4c3.6,0,6.3.9,8.2,2.8s2.6,4.2,2.6,7.4v14a1.8,1.8,0,0,1-1.7,1.9h-.1a1.8,1.8,0,0,1-1.8-1.6V44.4a11.4,11.4,0,0,1-9.2,4.4C116,48.8,111.2,46.1,111.2,40.9Zm18.7-2V36.4a27.1,27.1,0,0,0-7.5-1c-4.7,0-7.4,2-7.4,5.2h0c0,3.2,3,5.1,6.4,5.1s8.5-2.8,8.5-6.8ZM13,24.1l6.6,15.5,5.2-12.1A8.1,8.1,0,0,1,33,22a9,9,0,0,1,6.8,3.4S43.3,22,47.4,22s6.1,1.2,7.7,3.4a11.6,11.6,0,0,1,8.1-3.5,8.7,8.7,0,0,1,9,8.4V44.6c0,2.3-1.3,4.2-3.7,4.2s-3.8-1.9-3.8-4.2V32.4a3.6,3.6,0,0,0-3.3-3.9h-.5a3.8,3.8,0,0,0-4,3.6V44.6c0,2.3-1.4,4.2-3.8,4.2s-3.8-1.9-3.8-4.2V32.4A3.6,3.6,0,0,0,46,28.5h-.5a3.8,3.8,0,0,0-4,3.6V44.6c0,2.3-1.3,4.2-3.8,4.2S34,46.9,34,44.6v-15a1.1,1.1,0,0,0-1.1-1.1,1.1,1.1,0,0,0-1.1.6c0,.2-7.1,15.5-7.1,15.5-1.2,2.6-2.4,4.2-5.1,4.2s-3.8-1.4-5.1-4.2l-8-17.5A3.5,3.5,0,0,1,8,22.4h.2A3.7,3.7,0,0,1,13,24.1Zm163.1,1.5h0a3.2,3.2,0,0,1,6.3-1.1,2,2,0,0,1,0,1.1h0a3.2,3.2,0,0,1-3.7,2.6A3.2,3.2,0,0,1,176.1,25.6Zm1.9-1.3v2.4a.4.4,0,0,0,.4.4c.2,0,.3-.2.3-.4v-.6h.5l.7.8.3.2a.3.3,0,0,0,.3-.3h0a.4.4,0,0,0-.1-.3l-.4-.6a.9.9,0,0,0,.6-.9h0a.9.9,0,0,0-.3-.7,1.4,1.4,0,0,0-.9-.3h-1C178.2,24,178,24.1,178,24.3Zm1.4,1.2h-.7v-.9h.7c.2,0,.5.2.5.4h0A.5.5,0,0,1,179.4,25.5Z"/>
    </g>
</svg>
