<svg class="site--header-logo-icon" viewBox="0 0 21 29" width="21" height="29" xmlns="http://www.w3.org/2000/svg">
        <title>Sea Containers Logo Icon</title>
        <path d="M11.228698,10.1323178 L16.8786244,10.1323178 L16.8786244,11.6699797 L12.8280377,11.6699797 L12.8280377,26.6596623 L21,22.0125919 L21,23.7941289 L20.9646056,23.829174 L11.8682386,29 L11.228698,29 L11.228698,10.1323178 Z M8.20857719,0 L12.8279157,0 L12.8279157,5.5553615 L11.22882,5.5553615 L11.22882,1.53694174 L9.77203434,1.53694174 L9.77203434,10.1323419 L9.77203434,16.6315195 L9.77203434,28.999784 L9.16764403,28.999784 L0.035882623,23.829198 L1.27897692e-13,23.7941529 L1.27897692e-13,22.0118958 L8.20857719,26.6594463 L8.20857719,16.6315195 L8.20857719,11.6700037 L8.20857719,0 Z"/>
</svg>
